<mxfile host="app.diagrams.net" modified="2022-03-01T14:49:26.310Z" agent="5.0 (Macintosh; Intel Mac OS X 10_15_7) AppleWebKit/537.36 (KHTML, like Gecko) Chrome/98.0.4758.109 Safari/537.36" etag="qUgJ4qgN8V0r_kobgveZ" version="15.9.1" type="github">
  <diagram name="Page-1" id="7a6c530e-6e37-e111-ec74-82921da8cc10">
    <mxGraphModel dx="1173" dy="700" grid="1" gridSize="10" guides="1" tooltips="1" connect="1" arrows="1" fold="1" page="1" pageScale="1.5" pageWidth="1169" pageHeight="826" background="#FFFFFF" math="0" shadow="0">
      <root>
        <mxCell id="0" style=";html=1;" />
        <mxCell id="1" style=";html=1;" parent="0" />
        <mxCell id="23046e2b9bb16c14-116" value="&lt;h1&gt;JDK&lt;/h1&gt;" style="whiteSpace=wrap;html=1;rounded=1;shadow=0;strokeColor=#82b366;strokeWidth=2;fillColor=#d5e8d4;fontSize=20;align=center;arcSize=3;verticalAlign=top;spacingTop=4;" parent="1" vertex="1">
          <mxGeometry x="540" y="200" width="750" height="530" as="geometry" />
        </mxCell>
        <mxCell id="23046e2b9bb16c14-27" value="" style="rounded=1;whiteSpace=wrap;html=1;shadow=0;strokeWidth=2;fillColor=#8BC63E;fontSize=12;fontColor=#000000;align=center;strokeColor=none;arcSize=3;" parent="1" vertex="1">
          <mxGeometry x="800" y="290" width="420" height="380" as="geometry" />
        </mxCell>
        <mxCell id="23046e2b9bb16c14-28" value="&lt;h2&gt;&lt;font color=&quot;#000000&quot;&gt;JVM&lt;/font&gt;&lt;/h2&gt;" style="rounded=1;whiteSpace=wrap;html=1;shadow=0;strokeWidth=2;fillColor=#F04D22;fontSize=12;fontColor=#FFFFFF;align=center;strokeColor=none;arcSize=6;verticalAlign=top;" parent="1" vertex="1">
          <mxGeometry x="850" y="350" width="200" height="280" as="geometry" />
        </mxCell>
        <mxCell id="23046e2b9bb16c14-76" style="html=1;entryX=1.016;entryY=0.509;entryPerimeter=0;startArrow=none;startFill=0;startSize=10;endArrow=none;endFill=0;endSize=10;strokeWidth=3;fontSize=11;fontColor=#FFFFFF;strokeColor=#FFFFFF;rounded=0;" parent="1" target="23046e2b9bb16c14-7" edge="1">
          <mxGeometry relative="1" as="geometry">
            <mxPoint x="966" y="566.2286585365855" as="sourcePoint" />
          </mxGeometry>
        </mxCell>
        <mxCell id="23046e2b9bb16c14-77" style="html=1;entryX=0.802;entryY=0.762;entryPerimeter=0;startArrow=none;startFill=0;startSize=10;endArrow=none;endFill=0;endSize=10;strokeWidth=3;fontSize=11;fontColor=#FFFFFF;strokeColor=#FFFFFF;rounded=0;" parent="1" target="23046e2b9bb16c14-7" edge="1">
          <mxGeometry relative="1" as="geometry">
            <mxPoint x="966" y="601.7646076794658" as="sourcePoint" />
          </mxGeometry>
        </mxCell>
        <mxCell id="23046e2b9bb16c14-55" value="" style="rounded=1;whiteSpace=wrap;html=1;shadow=0;strokeWidth=2;fillColor=#dae8fc;fontSize=12;align=center;strokeColor=#6c8ebf;arcSize=9;" parent="1" vertex="1">
          <mxGeometry x="591" y="313.5" width="160" height="300" as="geometry" />
        </mxCell>
        <mxCell id="23046e2b9bb16c14-74" style="html=1;startArrow=none;startFill=0;startSize=10;endArrow=none;endFill=0;endSize=10;strokeWidth=3;fontSize=11;fontColor=#FFFFFF;strokeColor=#FFFFFF;rounded=0;edgeStyle=elbowEdgeStyle;elbow=vertical;" parent="1" edge="1">
          <mxGeometry relative="1" as="geometry">
            <mxPoint x="1088.5" y="566.7407407407406" as="sourcePoint" />
            <mxPoint x="1088.5" y="571.2254901960785" as="targetPoint" />
          </mxGeometry>
        </mxCell>
        <mxCell id="23046e2b9bb16c14-117" style="edgeStyle=orthogonalEdgeStyle;rounded=0;elbow=vertical;html=1;startArrow=none;startFill=0;startSize=10;endArrow=none;endFill=0;endSize=10;strokeColor=#FFFFFF;strokeWidth=3;fontSize=20;fontColor=#FFFFFF;entryX=0.004;entryY=0.516;entryPerimeter=0;" parent="1" source="23046e2b9bb16c14-68" edge="1">
          <mxGeometry relative="1" as="geometry">
            <mxPoint x="1336.2000000000003" y="556.8" as="targetPoint" />
            <Array as="points">
              <mxPoint x="1326" y="673" />
              <mxPoint x="1326" y="557" />
            </Array>
          </mxGeometry>
        </mxCell>
        <mxCell id="23046e2b9bb16c14-119" style="edgeStyle=orthogonalEdgeStyle;rounded=0;elbow=vertical;html=1;entryX=-0.002;entryY=0.494;entryPerimeter=0;startArrow=none;startFill=0;startSize=10;endArrow=none;endFill=0;endSize=10;strokeColor=#FFFFFF;strokeWidth=3;fontSize=20;fontColor=#FFFFFF;" parent="1" source="23046e2b9bb16c14-68" edge="1">
          <mxGeometry relative="1" as="geometry">
            <Array as="points">
              <mxPoint x="1326" y="673" />
              <mxPoint x="1326" y="395" />
            </Array>
            <mxPoint x="1335.9" y="394.70000000000005" as="targetPoint" />
          </mxGeometry>
        </mxCell>
        <mxCell id="23046e2b9bb16c14-87" value="A" style="text;html=1;strokeColor=none;fillColor=none;align=center;verticalAlign=middle;whiteSpace=wrap;rounded=1;shadow=0;fontSize=30;fontColor=#FFFFFF;fontStyle=1" parent="1" vertex="1">
          <mxGeometry x="326" y="853" width="40" height="35" as="geometry" />
        </mxCell>
        <mxCell id="23046e2b9bb16c14-88" value="B" style="text;html=1;strokeColor=none;fillColor=none;align=center;verticalAlign=middle;whiteSpace=wrap;rounded=1;shadow=0;fontSize=30;fontColor=#FFFFFF;fontStyle=1" parent="1" vertex="1">
          <mxGeometry x="626" y="853" width="40" height="35" as="geometry" />
        </mxCell>
        <mxCell id="23046e2b9bb16c14-89" value="C" style="text;html=1;strokeColor=none;fillColor=none;align=center;verticalAlign=middle;whiteSpace=wrap;rounded=1;shadow=0;fontSize=30;fontColor=#FFFFFF;fontStyle=1" parent="1" vertex="1">
          <mxGeometry x="1026" y="853" width="40" height="35" as="geometry" />
        </mxCell>
        <mxCell id="23046e2b9bb16c14-90" value="Computer" style="verticalLabelPosition=top;html=1;verticalAlign=bottom;strokeColor=none;fillColor=#FFFFFF;shape=mxgraph.azure.computer;rounded=0;shadow=0;fontSize=10;fontColor=#FFFFFF;align=center;labelPosition=center;" parent="1" vertex="1">
          <mxGeometry x="393" y="860" width="50" height="45" as="geometry" />
        </mxCell>
        <mxCell id="23046e2b9bb16c14-91" value="VHD" style="shadow=0;html=1;strokeColor=none;fillColor=#FFFFFF;labelPosition=center;verticalLabelPosition=top;verticalAlign=bottom;shape=mxgraph.azure.vhd;rounded=0;fontSize=10;fontColor=#FFFFFF;align=center;" parent="1" vertex="1">
          <mxGeometry x="483" y="857" width="40" height="50" as="geometry" />
        </mxCell>
        <mxCell id="23046e2b9bb16c14-92" value="+" style="text;html=1;strokeColor=none;fillColor=none;align=center;verticalAlign=middle;whiteSpace=wrap;rounded=1;shadow=0;fontSize=30;fontColor=#FFFFFF;fontStyle=1" parent="1" vertex="1">
          <mxGeometry x="443" y="865" width="40" height="35" as="geometry" />
        </mxCell>
        <mxCell id="23046e2b9bb16c14-93" value="+" style="text;html=1;strokeColor=none;fillColor=none;align=center;verticalAlign=middle;whiteSpace=wrap;rounded=1;shadow=0;fontSize=30;fontColor=#FFFFFF;fontStyle=1" parent="1" vertex="1">
          <mxGeometry x="523" y="865" width="40" height="35" as="geometry" />
        </mxCell>
        <mxCell id="23046e2b9bb16c14-94" value="Server&lt;div&gt;Directory&lt;/div&gt;" style="shadow=0;html=1;strokeColor=none;shape=mxgraph.mscae.enterprise.server_directory;fillColor=#FFFFFF;rounded=0;fontSize=10;fontColor=#FFFFFF;align=center;verticalAlign=bottom;labelPosition=center;verticalLabelPosition=top;" parent="1" vertex="1">
          <mxGeometry x="563" y="858" width="36" height="50" as="geometry" />
        </mxCell>
        <mxCell id="23046e2b9bb16c14-95" value="VM Feature" style="shadow=0;html=1;strokeColor=none;fillColor=#FFFFFF;labelPosition=center;verticalLabelPosition=top;verticalAlign=bottom;shape=mxgraph.azure.virtual_machine_feature;rounded=0;fontSize=10;fontColor=#FFFFFF;align=center;" parent="1" vertex="1">
          <mxGeometry x="684" y="861" width="50" height="45" as="geometry" />
        </mxCell>
        <mxCell id="23046e2b9bb16c14-96" value="+" style="text;html=1;strokeColor=none;fillColor=none;align=center;verticalAlign=middle;whiteSpace=wrap;rounded=1;shadow=0;fontSize=30;fontColor=#FFFFFF;fontStyle=1" parent="1" vertex="1">
          <mxGeometry x="734" y="866" width="40" height="35" as="geometry" />
        </mxCell>
        <mxCell id="23046e2b9bb16c14-97" value="VHD" style="shadow=0;html=1;strokeColor=none;fillColor=#FFFFFF;labelPosition=center;verticalLabelPosition=top;verticalAlign=bottom;shape=mxgraph.azure.vhd;rounded=0;fontSize=10;fontColor=#FFFFFF;align=center;" parent="1" vertex="1">
          <mxGeometry x="774" y="858" width="40" height="50" as="geometry" />
        </mxCell>
        <mxCell id="23046e2b9bb16c14-98" value="3rd Party&lt;div&gt;Integration&lt;/div&gt;" style="shadow=0;html=1;strokeColor=none;fillColor=#FFFFFF;labelPosition=center;verticalLabelPosition=top;verticalAlign=bottom;shape=mxgraph.office.communications.3rd_party_integration;rounded=0;fontSize=10;fontColor=#FFFFFF;align=center;" parent="1" vertex="1">
          <mxGeometry x="854" y="856" width="54" height="55" as="geometry" />
        </mxCell>
        <mxCell id="23046e2b9bb16c14-99" value="+" style="text;html=1;strokeColor=none;fillColor=none;align=center;verticalAlign=middle;whiteSpace=wrap;rounded=1;shadow=0;fontSize=30;fontColor=#FFFFFF;fontStyle=1" parent="1" vertex="1">
          <mxGeometry x="814" y="866" width="40" height="35" as="geometry" />
        </mxCell>
        <mxCell id="23046e2b9bb16c14-100" value="+" style="text;html=1;strokeColor=none;fillColor=none;align=center;verticalAlign=middle;whiteSpace=wrap;rounded=1;shadow=0;fontSize=30;fontColor=#FFFFFF;fontStyle=1" parent="1" vertex="1">
          <mxGeometry x="908" y="866" width="40" height="35" as="geometry" />
        </mxCell>
        <mxCell id="23046e2b9bb16c14-101" value="Data Migration&lt;div&gt;Wizard&lt;/div&gt;" style="shadow=0;html=1;strokeColor=none;shape=mxgraph.mscae.intune.data_migration_wizard;fillColor=#FFFFFF;rounded=0;fontSize=10;fontColor=#FFFFFF;align=center;verticalAlign=bottom;labelPosition=center;verticalLabelPosition=top;" parent="1" vertex="1">
          <mxGeometry x="948" y="859" width="50" height="48" as="geometry" />
        </mxCell>
        <mxCell id="23046e2b9bb16c14-102" value="VM Feature" style="shadow=0;html=1;strokeColor=none;fillColor=#FFFFFF;labelPosition=center;verticalLabelPosition=top;verticalAlign=bottom;shape=mxgraph.azure.virtual_machine_feature;rounded=0;fontSize=10;fontColor=#FFFFFF;align=center;" parent="1" vertex="1">
          <mxGeometry x="1086" y="861" width="50" height="45" as="geometry" />
        </mxCell>
        <mxCell id="23046e2b9bb16c14-103" value="" style="line;strokeWidth=2;direction=south;html=1;rounded=0;shadow=0;fillColor=none;fontSize=30;fontColor=#FFFFFF;align=center;strokeColor=#FFFFFF;" parent="1" vertex="1">
          <mxGeometry x="366" y="820" width="10" height="102" as="geometry" />
        </mxCell>
        <mxCell id="23046e2b9bb16c14-104" value="" style="line;strokeWidth=2;direction=south;html=1;rounded=0;shadow=0;fillColor=none;fontSize=30;fontColor=#FFFFFF;align=center;strokeColor=#FFFFFF;" parent="1" vertex="1">
          <mxGeometry x="666" y="820" width="10" height="102" as="geometry" />
        </mxCell>
        <mxCell id="23046e2b9bb16c14-106" value="+" style="text;html=1;strokeColor=none;fillColor=none;align=center;verticalAlign=middle;whiteSpace=wrap;rounded=1;shadow=0;fontSize=30;fontColor=#FFFFFF;fontStyle=1" parent="1" vertex="1">
          <mxGeometry x="1136" y="866" width="40" height="35" as="geometry" />
        </mxCell>
        <mxCell id="23046e2b9bb16c14-107" value="Azure&lt;div&gt;Website&lt;/div&gt;" style="verticalLabelPosition=top;html=1;verticalAlign=bottom;strokeColor=none;fillColor=#FFFFFF;shape=mxgraph.azure.azure_website;rounded=0;shadow=0;fontSize=10;fontColor=#FFFFFF;align=center;labelPosition=center;" parent="1" vertex="1">
          <mxGeometry x="1176" y="858" width="50" height="50" as="geometry" />
        </mxCell>
        <mxCell id="23046e2b9bb16c14-108" value="+" style="text;html=1;strokeColor=none;fillColor=none;align=center;verticalAlign=middle;whiteSpace=wrap;rounded=1;shadow=0;fontSize=30;fontColor=#FFFFFF;fontStyle=1" parent="1" vertex="1">
          <mxGeometry x="1226" y="866" width="40" height="35" as="geometry" />
        </mxCell>
        <mxCell id="23046e2b9bb16c14-109" value="MySQL&lt;div&gt;Database&lt;/div&gt;" style="verticalLabelPosition=top;html=1;verticalAlign=bottom;strokeColor=none;fillColor=#FFFFFF;shape=mxgraph.azure.mysql_database;rounded=0;shadow=0;fontSize=10;fontColor=#FFFFFF;align=center;labelPosition=center;" parent="1" vertex="1">
          <mxGeometry x="1266" y="859" width="37.5" height="50" as="geometry" />
        </mxCell>
        <mxCell id="23046e2b9bb16c14-110" value="+" style="text;html=1;strokeColor=none;fillColor=none;align=center;verticalAlign=middle;whiteSpace=wrap;rounded=1;shadow=0;fontSize=30;fontColor=#FFFFFF;fontStyle=1" parent="1" vertex="1">
          <mxGeometry x="1304" y="866" width="40" height="35" as="geometry" />
        </mxCell>
        <mxCell id="23046e2b9bb16c14-111" value="Azure&lt;div&gt;Storage&lt;/div&gt;" style="shadow=0;html=1;strokeColor=none;labelPosition=center;verticalLabelPosition=top;verticalAlign=bottom;shape=mxgraph.mscae.cloud.azure_storage;fillColor=#FFFFFF;rounded=0;fontSize=10;fontColor=#FFFFFF;align=center;" parent="1" vertex="1">
          <mxGeometry x="1344" y="862" width="50" height="43" as="geometry" />
        </mxCell>
        <mxCell id="23046e2b9bb16c14-114" value="Subtitle" style="text;html=1;strokeColor=none;fillColor=none;align=center;verticalAlign=middle;whiteSpace=wrap;rounded=0;shadow=0;fontSize=10;fontColor=#009BFF;" parent="1" vertex="1">
          <mxGeometry x="114" y="90" width="1526" height="20" as="geometry" />
        </mxCell>
        <mxCell id="23046e2b9bb16c14-115" value="&lt;h1&gt;Heading&lt;/h1&gt;&lt;p&gt;Lorem ipsum dolor sit amet, consectetur adipisicing elit, sed do eiusmod tempor incididunt ut labore et dolore magna aliqua.&lt;/p&gt;" style="text;html=1;strokeColor=none;fillColor=none;spacing=5;spacingTop=-20;whiteSpace=wrap;overflow=hidden;rounded=0;shadow=0;fontSize=10;fontColor=#FFFFFF;align=left;" parent="1" vertex="1">
          <mxGeometry x="323" y="952" width="1041" height="70" as="geometry" />
        </mxCell>
        <mxCell id="VA3_GXKNM_baTt2-rVQ3-6" value="&lt;h1 style=&quot;font-family: &amp;#34;helvetica&amp;#34; ; font-style: normal ; letter-spacing: normal ; text-align: center ; text-indent: 0px ; text-transform: none ; word-spacing: 0px&quot;&gt;JRE&lt;/h1&gt;" style="text;whiteSpace=wrap;html=1;" vertex="1" parent="1">
          <mxGeometry x="908" y="290" width="70" height="60" as="geometry" />
        </mxCell>
        <mxCell id="VA3_GXKNM_baTt2-rVQ3-12" value="&lt;font color=&quot;#000000&quot;&gt;Jar&lt;/font&gt;" style="whiteSpace=wrap;html=1;labelBackgroundColor=none;fontColor=#7EA6E0;fillColor=#7EA6E0;" vertex="1" parent="1">
          <mxGeometry x="611" y="482" width="120" height="60" as="geometry" />
        </mxCell>
        <mxCell id="VA3_GXKNM_baTt2-rVQ3-16" value="&lt;span style=&quot;color: rgb(0 , 0 , 0)&quot;&gt;Javac&lt;/span&gt;" style="whiteSpace=wrap;html=1;labelBackgroundColor=none;fontColor=#7EA6E0;fillColor=#7EA6E0;" vertex="1" parent="1">
          <mxGeometry x="611" y="403" width="120" height="60" as="geometry" />
        </mxCell>
        <mxCell id="VA3_GXKNM_baTt2-rVQ3-17" value="&lt;span style=&quot;color: rgb(0 , 0 , 0)&quot;&gt;Develop Tools&lt;/span&gt;" style="whiteSpace=wrap;html=1;labelBackgroundColor=none;fontColor=#7EA6E0;fillColor=#7EA6E0;" vertex="1" parent="1">
          <mxGeometry x="611" y="322" width="120" height="60" as="geometry" />
        </mxCell>
        <mxCell id="VA3_GXKNM_baTt2-rVQ3-20" value="&lt;font color=&quot;#000000&quot;&gt;......&lt;/font&gt;" style="whiteSpace=wrap;html=1;labelBackgroundColor=none;fontColor=#7EA6E0;fillColor=#7EA6E0;" vertex="1" parent="1">
          <mxGeometry x="611" y="553.5" width="120" height="60" as="geometry" />
        </mxCell>
        <mxCell id="VA3_GXKNM_baTt2-rVQ3-21" value="" style="rounded=1;whiteSpace=wrap;html=1;shadow=0;strokeWidth=2;fillColor=#d5e8d4;fontSize=12;align=center;strokeColor=#82b366;arcSize=9;" vertex="1" parent="1">
          <mxGeometry x="1060" y="385" width="140" height="235" as="geometry" />
        </mxCell>
        <mxCell id="VA3_GXKNM_baTt2-rVQ3-24" value="&lt;span style=&quot;color: rgb(0 , 0 , 0)&quot;&gt;libraries&lt;/span&gt;" style="whiteSpace=wrap;html=1;labelBackgroundColor=none;fontColor=#7EA6E0;fillColor=#99FFCC;" vertex="1" parent="1">
          <mxGeometry x="1080" y="410" width="100" height="43.5" as="geometry" />
        </mxCell>
        <mxCell id="VA3_GXKNM_baTt2-rVQ3-29" value="&lt;span style=&quot;color: rgb(0 , 0 , 0)&quot;&gt;rt.jar&lt;/span&gt;" style="whiteSpace=wrap;html=1;labelBackgroundColor=none;fontColor=#7EA6E0;fillColor=#99FFCC;" vertex="1" parent="1">
          <mxGeometry x="1080" y="476.5" width="100" height="43.5" as="geometry" />
        </mxCell>
        <mxCell id="VA3_GXKNM_baTt2-rVQ3-30" value="&lt;span style=&quot;color: rgb(0 , 0 , 0)&quot;&gt;...&lt;/span&gt;" style="whiteSpace=wrap;html=1;labelBackgroundColor=none;fontColor=#7EA6E0;fillColor=#99FFCC;" vertex="1" parent="1">
          <mxGeometry x="1080" y="548" width="100" height="43.5" as="geometry" />
        </mxCell>
      </root>
    </mxGraphModel>
  </diagram>
</mxfile>
